inDegrees=no
num_controls=7
num_derivatives=13
num_iterations=206
num_multipliers=7
num_parameters=0
num_slacks=7
num_states=26
objective=6.004248
objective_accelerations=0.487984
objective_balance=0.035280
objective_effort=0.463978
objective_height=4.924649
objective_ligament=0.092358
solver_duration=1807.581126
status=Solve_Succeeded
success=true
DataType=double
version=3
OpenSimVersion=4.4-2022-07-23-0e9fedc
endheader
time	/jointset/ground_pelvis/pelvis_tilt/value	/jointset/ground_pelvis/pelvis_tx/value	/jointset/ground_pelvis/pelvis_ty/value	/jointset/hip_r/hip_flexion_r/value	/jointset/hip_r/hip_adduction_r/value	/jointset/hip_r/hip_rotation_r/value	/jointset/back/lumbar_extension/value	/jointset/patellofemoral_r/patellar_flexion_r/value	/jointset/knee_r/knee_flexion_r/value	/jointset/knee_r/knee_adduction_r/value	/jointset/knee_r/knee_rotation_r/value	/jointset/ankle_r/ankle_angle_r/value	/jointset/subtalar_r/subtalar_angle_r/value	/jointset/ground_pelvis/pelvis_tilt/speed	/jointset/ground_pelvis/pelvis_tx/speed	/jointset/ground_pelvis/pelvis_ty/speed	/jointset/hip_r/hip_flexion_r/speed	/jointset/hip_r/hip_adduction_r/speed	/jointset/hip_r/hip_rotation_r/speed	/jointset/back/lumbar_extension/speed	/jointset/patellofemoral_r/patellar_flexion_r/speed	/jointset/knee_r/knee_flexion_r/speed	/jointset/knee_r/knee_adduction_r/speed	/jointset/knee_r/knee_rotation_r/speed	/jointset/ankle_r/ankle_angle_r/speed	/jointset/subtalar_r/subtalar_angle_r/speed	/forceset/tau_hip_flexion_r	/forceset/tau_hip_adduction_r	/forceset/tau_hip_rotation_r	/forceset/tau_knee_flexion_r	/forceset/tau_ankle_angle_r	/forceset/tau_subtalar_angle_r	/forceset/tau_lumbar_extension	lambda_cid13_p0	lambda_cid14_p0	lambda_cid14_p1	lambda_cid14_p2	lambda_cid14_p3	lambda_cid14_p4	lambda_cid14_p5	/jointset/ground_pelvis/pelvis_tilt/accel	/jointset/ground_pelvis/pelvis_tx/accel	/jointset/ground_pelvis/pelvis_ty/accel	/jointset/hip_r/hip_flexion_r/accel	/jointset/hip_r/hip_adduction_r/accel	/jointset/hip_r/hip_rotation_r/accel	/jointset/back/lumbar_extension/accel	/jointset/patellofemoral_r/patellar_flexion_r/accel	/jointset/knee_r/knee_flexion_r/accel	/jointset/knee_r/knee_adduction_r/accel	/jointset/knee_r/knee_rotation_r/accel	/jointset/ankle_r/ankle_angle_r/accel	/jointset/subtalar_r/subtalar_angle_r/accel	gamma_cid13_p0	gamma_cid14_p0	gamma_cid14_p1	gamma_cid14_p2	gamma_cid14_p3	gamma_cid14_p4	gamma_cid14_p5
1	-0.230928849593361	0.01709352843491167	0.7137587031880501	1.250415003413895	-0.2280685864490284	-0.1002126898249921	-0.4362888467711525	1.253714115430578	1.253714115431333	-0.09615772854718471	0.174022686558826	0.4363041251021757	0.1185948725512289	-0.001231979321218733	0.004475026380589822	0.01557343575139839	-0.0418704578212535	0.001897841006788668	-0.006068614084409873	0.004500782507590093	-0.05209889379812183	-0.05209889379811338	0.005982029290237616	-4.344284737256275e-05	-0.01053829835099849	-0.000972815652137232	-0.2339126741464193	0.01203977696423461	0.01392419702997058	-0.4769000840614475	-0.0149579563179921	0.0130371093037856	0.268991547248964	-0.4063403863134382	-52.75366880576174	-3.49958675763146	0.9320222771250456	18.07814960787903	-788.7180647313734	69.49830998986003	1.044897404290117	0.06582251940827437	1.524902958671802	-4.654690984417295	0.135678250066897	-0.195745721136659	0.2878720643535247	-4.933368110235683	-4.933368110235795	1.024041804528216	0.02373782235484842	-1.538843669926351	-0.4001573731557376	1.843057633520611e-09	-5.446294195489321e-10	1.369734577728504e-08	1.894881542524658e-08	5.841022521253798e-09	-5.034553612190468e-09	1.699852175742896e-08
1.01	-0.2308899327933988	0.01714167226531507	0.7139905176533652	1.24976466186515	-0.2280429365112938	-0.1002820332944858	-0.4362274224570595	1.252946722531336	1.252946722532118	-0.09604553373689803	0.1740231772984297	0.4361218774677905	0.1185649524462143	0.008974743198933884	0.005166065815202398	0.03078592108143861	-0.0881735953965688	0.003229004354303068	-0.007804500438766352	0.007917828231381102	-0.1013889339433553	-0.1013889339433414	0.01645982385109588	0.0001442596129140723	-0.02590507440185577	-0.005013084548715509	-0.2346775257891343	0.01221586775703167	0.01391573822753376	-0.4761545491373631	-0.01569226070894064	0.01307021943786153	0.269749876668915	-0.4175649190918795	-52.99914421218764	-3.522071476564328	0.9286205702358115	18.09223256427621	-789.0160838623993	69.39902796833464	1.002471648623383	0.07259400346607431	1.518889290273471	-4.614485450576217	0.1313701855995609	-0.1631707071492727	0.3886830144418397	-4.928209808187082	-4.928209808186248	1.060083624298496	0.01669581448999686	-1.534672334771085	-0.4062347446713392	3.273104070120487e-09	2.784247778470554e-09	2.818350289350191e-08	3.613042749566552e-08	2.190178476910241e-09	-7.94751931173601e-09	3.691865188961429e-08
1.02	-0.2307501663736841	0.01719709635966011	0.7143743505660018	1.248652016879356	-0.2280040679783856	-0.1003688677504303	-0.4361278152481181	1.251686151662336	1.251686151663147	-0.0958284739125204	0.1740256269339643	0.4357861465204756	0.1184945750328813	0.01893794462890608	0.005931079168918487	0.0459771252156937	-0.1343311452313873	0.004541560042050048	-0.009566811375686169	0.01213736147717767	-0.1507344877493853	-0.1507344877493655	0.02695503210931019	0.0003483363381762071	-0.04123496093693934	-0.009064277315791364	-0.235442377431843	0.01239195854983455	0.01390727942510406	-0.4754090142132747	-0.01642656509988607	0.01310332957194837	0.2705082060888706	-0.4363765017646985	-53.25539581837728	-3.542059347610039	0.9198132876561409	18.12842359804862	-789.4846628829119	69.32609113300184	0.9961931862539979	0.0806173032289951	1.520646719514785	-4.62557343631795	0.1319567181134106	-0.2010306376493195	0.4483695687546378	-4.944470842395027	-4.944470842395029	1.027524543999441	0.02701267534994642	-1.531465766771594	-0.4023421472552502	4.551243047649829e-09	5.219777779345443e-09	3.971773973530957e-08	5.313467885484607e-08	3.447352561937052e-10	-1.001203909606386e-08	5.204566719963126e-08
1.03	-0.2305119290673585	0.01726057979140225	0.7149099208559254	1.247078555866826	-0.2279521865571926	-0.1004735279693362	-0.4359820301305573	1.249931985286316	1.249931985287182	-0.09550645817627598	0.1740302014481931	0.435297355367419	0.1183836345163471	0.02867219167988299	0.006781953226741664	0.06112625086343632	-0.1803310314895029	0.005829613008570093	-0.01137141101880931	0.01715371237879673	-0.200093767644891	-0.2000937676448856	0.03744761281611544	0.0005674459460633304	-0.05651175511506881	-0.01312551771110504	-0.2358991395086697	0.01247587613391578	0.01392055894518421	-0.4744480271267741	-0.01679140466346725	0.01310080881952755	0.2710276883741672	-0.4633069689999534	-53.36501655783417	-3.550771855416696	0.907979799089413	18.02824838028175	-789.5063821258537	69.23100971842965	0.9564439799758687	0.08977405665354901	1.510440775543141	-4.582690312625677	0.1264747120334392	-0.1710963397057225	0.5483754024335028	-4.930904765038698	-4.930904765040906	1.060052399437155	0.01950935804944921	-1.524060308632627	-0.4082522659926373	5.827831949066205e-09	7.646191992494361e-09	5.122185494166407e-08	7.013712041085071e-08	-1.482285507138871e-09	-1.206790126901194e-08	6.712377317472814e-08
1.04	-0.2301774685874298	0.01733306228364139	0.7155966614599549	1.245045997173303	-0.2278875755811146	-0.1005964185270811	-0.4357820599936658	1.247684376470958	1.247684376471882	-0.09507953111988428	0.1740369969094107	0.4346561414595215	0.118232034139795	0.03818257934911037	0.007730891268316096	0.07621118803682445	-0.2261506814303124	0.007087471019575294	-0.01321287914440734	0.02297436534314184	-0.249422975616811	-0.2494229756168199	0.04793729613956578	0.0007925257356032633	-0.0717195119051577	-0.0171962493193462	-0.2363559015854979	0.01255979371799906	0.01393383846527263	-0.4734870400402695	-0.0171562442270455	0.01309828806711108	0.2715471706594617	-0.4991047577427712	-53.48535892166824	-3.556861436340749	0.8905875569926303	17.94882522600788	-789.6989062978583	69.16225695522967	0.9514213099040668	0.1002300999792599	1.507809024643892	-4.589526172856738	0.1259177270104417	-0.2084043341442874	0.6092299812998528	-4.938456457677931	-4.938456457677908	1.02694506732847	0.02820671168050228	-1.517658289163469	-0.4042403898407429	6.908069709251134e-09	9.667463421280838e-09	5.981651109946556e-08	8.387255507034058e-08	-3.130464356409175e-09	-1.411222632553314e-08	7.867166864392972e-08
1.05	-0.229748976060276	0.01741552391097434	0.7164338635754421	1.242556221155913	-0.2278105523679305	-0.1007380165485691	-0.4355199892613079	1.244943720312133	1.244943720312462	-0.09454783097247811	0.1740460956090367	0.4338631663205657	0.1180396564969592	0.04748090532711826	0.008777808277523882	0.09121150761738726	-0.2717639770997448	0.008310729815075168	-0.01511455257478289	0.02956447420273573	-0.2986929382692148	-0.2986929382692439	0.05839950495846283	0.001026480139941568	-0.08686678777331276	-0.02128304227726818	-0.2364745860882994	0.01258155335140053	0.01396199962438	-0.4722481713636759	-0.01731748663261399	0.01306914539542857	0.2717708709522269	-0.5447023527352817	-53.51324803899934	-3.556611418924304	0.8702275146512121	17.826727394225	-789.4152822763036	69.06032168649396	0.9137880342271815	0.1093776421038814	1.493481056406707	-4.541146880616763	0.1195799586942652	-0.1822156202086641	0.7026052994419589	-4.918970094514269	-4.918970094517372	1.055378302085148	0.02090360337731965	-1.511954486546429	-0.4114407878178633	7.982171496272582e-09	1.167607413805599e-08	6.832024666199978e-08	9.750589576431437e-08	-4.773054395865033e-09	-1.6156190847166e-08	9.01092450348221e-08
